<?xml version="1.0" encoding="utf-8"?>
<!-- Generator: Adobe Illustrator 27.8.1, SVG Export Plug-In . SVG Version: 6.00 Build 0)  -->
<svg version="1.1" id="Layer_1" xmlns="http://www.w3.org/2000/svg" xmlns:xlink="http://www.w3.org/1999/xlink" x="0px" y="0px"
	 viewBox="0 0 441.1 141.4" style="enable-background:new 0 0 441.1 141.4;" xml:space="preserve">
<style type="text/css">
	.st0{fill-rule:evenodd;clip-rule:evenodd;fill:#FFFFFF;}
	.st1{fill:#FBC546;}
	.st2{fill-rule:evenodd;clip-rule:evenodd;fill:#722245;}
	.st3{fill-rule:evenodd;clip-rule:evenodd;fill:#CA3B8F;}
	.st4{fill-rule:evenodd;clip-rule:evenodd;}
	.st5{fill-rule:evenodd;clip-rule:evenodd;fill:#7F7F7F;}
</style>
<g>
	<path class="st0" d="M119.3,134.6H28.5c-10.2,0-18.5-8.3-18.5-18.5V25.3c0-10.2,8.3-18.5,18.5-18.5h90.8c10.2,0,18.5,8.3,18.5,18.5
		v90.8C137.8,126.3,129.5,134.6,119.3,134.6z"/>
	<g>
		<g>
			<path class="st1" d="M120.7,86.7c0,6.2-1.6,10.7-4.2,13.9c-2.6,3.3-6.3,5.5-10.8,7.1c-9.2,3.2-21,3.2-31.6,3.2
				c-10.6,0-22.5,0-31.9-3.2c-4.6-1.6-8.4-3.9-11-7.1c-2.6-3.2-4.2-7.6-4.2-13.9c0-11.6,2.5-25.8,9.6-36.9c7-11,18.6-19.2,37.5-19.2
				c17.9,0,29.4,8.3,36.5,19.3C117.9,61,120.7,75.2,120.7,86.7z"/>
			<path d="M74.2,113.6c-10.2,0-22.9,0-32.8-3.4c-5.4-1.8-9.4-4.5-12.3-8c-3.2-4-4.9-9.3-4.9-15.6c0-8.5,1.3-24.7,10.1-38.4
				c8.7-13.6,22.1-20.5,39.8-20.5c16.7,0,30.1,7.1,38.8,20.6c6.7,10.3,10.5,24.3,10.5,38.3c0,6.3-1.6,11.6-4.8,15.6
				c-2.8,3.5-6.7,6.2-12.1,8C97,113.6,84.9,113.6,74.2,113.6z M74.2,33.3c-15.7,0-27.5,6-35.2,17.9c-5.8,9.1-9.2,22-9.2,35.4
				c0,5.1,1.2,9.1,3.6,12.1c2.2,2.7,5.3,4.7,9.7,6.2c9,3.1,20.7,3.1,31,3.1c10.2,0,21.8,0,30.7-3.1c4.3-1.5,7.4-3.5,9.5-6.2
				c2.4-3,3.6-7,3.6-12.2c0-6.2-0.9-21.9-9.6-35.3C100.6,39.4,89.1,33.3,74.2,33.3z"/>
		</g>
		<g>
			<path class="st2" d="M57.9,90.4c-5-3.8-8.5-9.3-9.8-15.7h51.8c-1.3,6.4-4.9,11.9-9.8,15.7C87.2,87.2,60.9,87.2,57.9,90.4z"/>
			<path class="st3" d="M57.9,90.4c2.9-3.2,7.1-5.1,11.7-5.1h8.9c4.5,0,8.7,1.9,11.7,5.1c-4.5,3.4-10,5.5-16.1,5.5
				C68,95.9,62.4,93.9,57.9,90.4z"/>
			<path class="st0" d="M56.8,72.1c2.5,0,4.8-1,6.5-2.7c1.7-1.7,2.7-4.1,2.7-6.5c0-1.7,0-3.6,0-5.3c0-5.1-4.1-9.3-9.3-9.3h0
				c-2.5,0-4.8,1-6.5,2.7c-1.7,1.7-2.7,4.1-2.7,6.5v5.3C47.6,67.9,51.7,72.1,56.8,72.1L56.8,72.1z"/>
			<path class="st4" d="M52.9,56.2c0-1.4,0.6-2.7,1.6-3.7c1-1,2.3-1.6,3.7-1.6c1.4,0,2.7,0.6,3.7,1.6s1.5,2.3,1.5,3.7v7.9
				c0,1.4-0.6,2.7-1.5,3.7c-1,1-2.3,1.5-3.7,1.5c-1.4,0-2.7-0.6-3.7-1.5c-1-1-1.6-2.3-1.6-3.7C52.9,61.6,52.9,58.7,52.9,56.2z"/>
			<path class="st0" d="M91.2,72.1c-2.5,0-4.8-1-6.5-2.7S82,65.3,82,62.8c0-1.7,0-3.6,0-5.3c0-5.1,4.1-9.3,9.3-9.3h0
				c2.5,0,4.8,1,6.5,2.7c1.7,1.7,2.7,4.1,2.7,6.5v5.3C100.5,67.9,96.3,72.1,91.2,72.1L91.2,72.1z"/>
			<path class="st4" d="M95.2,56.2c0-1.4-0.6-2.7-1.6-3.7c-1-1-2.3-1.6-3.7-1.6c-1.4,0-2.7,0.6-3.7,1.6c-1,1-1.5,2.3-1.5,3.7v7.9
				c0,1.4,0.6,2.7,1.5,3.7c1,1,2.3,1.5,3.7,1.5c1.4,0,2.7-0.6,3.7-1.5c1-1,1.6-2.3,1.6-3.7C95.2,61.6,95.2,58.7,95.2,56.2z"/>
		</g>
	</g>
</g>
<g>
	<path class="st5" d="M265.9,134.6h-90.8c-10.2,0-18.5-8.3-18.5-18.5V25.3c0-10.2,8.3-18.5,18.5-18.5h90.8
		c10.2,0,18.5,8.3,18.5,18.5v90.8C284.4,126.3,276.2,134.6,265.9,134.6z"/>
	<g>
		<g>
			<path class="st1" d="M267.4,86.7c0,6.2-1.6,10.7-4.2,13.9c-2.6,3.3-6.3,5.5-10.8,7.1c-9.2,3.2-21,3.2-31.6,3.2
				c-10.6,0-22.5,0-31.9-3.2c-4.6-1.6-8.4-3.9-11-7.1c-2.6-3.2-4.2-7.6-4.2-13.9c0-11.6,2.5-25.8,9.6-36.9c7-11,18.6-19.2,37.5-19.2
				c17.9,0,29.4,8.3,36.5,19.3C264.6,61,267.4,75.2,267.4,86.7z"/>
			<path d="M220.9,113.6c-10.2,0-22.9,0-32.8-3.4c-5.4-1.8-9.4-4.5-12.3-8c-3.2-4-4.9-9.3-4.9-15.6c0-8.5,1.3-24.7,10.1-38.4
				c8.7-13.6,22.1-20.5,39.8-20.5c16.7,0,30.1,7.1,38.8,20.6c6.7,10.3,10.5,24.3,10.5,38.3c0,6.3-1.6,11.6-4.8,15.6
				c-2.8,3.5-6.7,6.2-12.1,8C243.6,113.6,231.5,113.6,220.9,113.6z M220.9,33.3c-15.7,0-27.5,6-35.2,17.9c-5.8,9.1-9.2,22-9.2,35.4
				c0,5.1,1.2,9.1,3.6,12.1c2.2,2.7,5.3,4.7,9.7,6.2c9,3.1,20.7,3.1,31,3.1c10.2,0,21.8,0,30.7-3.1c4.3-1.5,7.4-3.5,9.5-6.2
				c2.4-3,3.6-7,3.6-12.2c0-6.2-0.9-21.9-9.6-35.3C247.3,39.4,235.8,33.3,220.9,33.3z"/>
		</g>
		<g>
			<path class="st2" d="M204.6,90.4c-5-3.8-8.5-9.3-9.8-15.7h51.8c-1.3,6.4-4.9,11.9-9.8,15.7C233.8,87.2,207.5,87.2,204.6,90.4z"/>
			<path class="st3" d="M204.6,90.4c2.9-3.2,7.1-5.1,11.7-5.1h8.9c4.5,0,8.7,1.9,11.7,5.1c-4.5,3.4-10,5.5-16.1,5.5
				C214.6,95.9,209,93.9,204.6,90.4z"/>
			<path class="st0" d="M203.5,72.1c2.5,0,4.8-1,6.5-2.7c1.7-1.7,2.7-4.1,2.7-6.5c0-1.7,0-3.6,0-5.3c0-5.1-4.1-9.3-9.3-9.3h0
				c-2.5,0-4.8,1-6.5,2.7c-1.7,1.7-2.7,4.1-2.7,6.5v5.3C194.2,67.9,198.4,72.1,203.5,72.1L203.5,72.1z"/>
			<path class="st4" d="M199.5,56.2c0-1.4,0.6-2.7,1.6-3.7c1-1,2.3-1.6,3.7-1.6c1.4,0,2.7,0.6,3.7,1.6c1,1,1.5,2.3,1.5,3.7v7.9
				c0,1.4-0.6,2.7-1.5,3.7c-1,1-2.3,1.5-3.7,1.5c-1.4,0-2.7-0.6-3.7-1.5c-1-1-1.6-2.3-1.6-3.7C199.5,61.6,199.5,58.7,199.5,56.2z"/>
			<path class="st0" d="M237.9,72.1c-2.5,0-4.8-1-6.5-2.7s-2.7-4.1-2.7-6.5c0-1.7,0-3.6,0-5.3c0-5.1,4.1-9.3,9.3-9.3h0
				c2.5,0,4.8,1,6.5,2.7c1.7,1.7,2.7,4.1,2.7,6.5v5.3C247.1,67.9,243,72.1,237.9,72.1L237.9,72.1z"/>
			<path class="st4" d="M241.8,56.2c0-1.4-0.6-2.7-1.6-3.7c-1-1-2.3-1.6-3.7-1.6c-1.4,0-2.7,0.6-3.7,1.6c-1,1-1.5,2.3-1.5,3.7v7.9
				c0,1.4,0.6,2.7,1.5,3.7c1,1,2.3,1.5,3.7,1.5c1.4,0,2.7-0.6,3.7-1.5c1-1,1.6-2.3,1.6-3.7C241.8,61.6,241.8,58.7,241.8,56.2z"/>
		</g>
	</g>
</g>
<g>
	<path class="st4" d="M412.6,134.6h-90.8c-10.2,0-18.5-8.3-18.5-18.5V25.3c0-10.2,8.3-18.5,18.5-18.5h90.8
		c10.2,0,18.5,8.3,18.5,18.5v90.8C431.1,126.3,422.8,134.6,412.6,134.6z"/>
	<g>
		<g>
			<path class="st1" d="M414,86.7c0,6.2-1.6,10.7-4.2,13.9c-2.6,3.3-6.3,5.5-10.8,7.1c-9.2,3.2-21,3.2-31.6,3.2
				c-10.6,0-22.5,0-31.9-3.2c-4.6-1.6-8.4-3.9-11-7.1c-2.6-3.2-4.2-7.6-4.2-13.9c0-11.6,2.5-25.8,9.6-36.9c7-11,18.6-19.2,37.5-19.2
				c17.9,0,29.4,8.3,36.5,19.3C411.2,61,414,75.2,414,86.7z"/>
			<path d="M367.5,113.6c-10.2,0-22.9,0-32.8-3.4c-5.4-1.8-9.4-4.5-12.3-8c-3.2-4-4.9-9.3-4.9-15.6c0-8.5,1.3-24.7,10.1-38.4
				c8.7-13.6,22.1-20.5,39.8-20.5c16.7,0,30.1,7.1,38.8,20.6c6.7,10.3,10.5,24.3,10.5,38.3c0,6.3-1.6,11.6-4.8,15.6
				c-2.8,3.5-6.7,6.2-12.1,8C390.3,113.6,378.2,113.6,367.5,113.6z M367.5,33.3c-15.7,0-27.5,6-35.2,17.9c-5.8,9.1-9.2,22-9.2,35.4
				c0,5.1,1.2,9.1,3.6,12.1c2.2,2.7,5.3,4.7,9.7,6.2c9,3.1,20.7,3.1,31,3.1c10.2,0,21.8,0,30.7-3.1c4.3-1.5,7.4-3.5,9.5-6.2
				c2.4-3,3.6-7,3.6-12.2c0-6.2-0.9-21.9-9.6-35.3C393.9,39.4,382.4,33.3,367.5,33.3z"/>
		</g>
		<g>
			<path class="st2" d="M351.2,90.4c-5-3.8-8.5-9.3-9.8-15.7h51.8c-1.3,6.4-4.9,11.9-9.8,15.7C380.5,87.2,354.2,87.2,351.2,90.4z"/>
			<path class="st3" d="M351.2,90.4c2.9-3.2,7.1-5.1,11.7-5.1h8.9c4.5,0,8.7,1.9,11.7,5.1c-4.5,3.4-10,5.5-16.1,5.5
				C361.3,95.9,355.7,93.9,351.2,90.4z"/>
			<path class="st0" d="M350.1,72.1c2.5,0,4.8-1,6.5-2.7c1.7-1.7,2.7-4.1,2.7-6.5c0-1.7,0-3.6,0-5.3c0-5.1-4.1-9.3-9.3-9.3h0
				c-2.5,0-4.8,1-6.5,2.7c-1.7,1.7-2.7,4.1-2.7,6.5v5.3C340.9,67.9,345,72.1,350.1,72.1L350.1,72.1z"/>
			<path class="st4" d="M346.2,56.2c0-1.4,0.6-2.7,1.6-3.7c1-1,2.3-1.6,3.7-1.6c1.4,0,2.7,0.6,3.7,1.6c1,1,1.5,2.3,1.5,3.7v7.9
				c0,1.4-0.6,2.7-1.5,3.7c-1,1-2.3,1.5-3.7,1.5c-1.4,0-2.7-0.6-3.7-1.5c-1-1-1.6-2.3-1.6-3.7C346.2,61.6,346.2,58.7,346.2,56.2z"/>
			<path class="st0" d="M384.5,72.1c-2.5,0-4.8-1-6.5-2.7s-2.7-4.1-2.7-6.5c0-1.7,0-3.6,0-5.3c0-5.1,4.1-9.3,9.3-9.3h0
				c2.5,0,4.8,1,6.5,2.7c1.7,1.7,2.7,4.1,2.7,6.5v5.3C393.8,67.9,389.6,72.1,384.5,72.1L384.5,72.1z"/>
			<path class="st4" d="M388.5,56.2c0-1.4-0.6-2.7-1.6-3.7c-1-1-2.3-1.6-3.7-1.6s-2.7,0.6-3.7,1.6c-1,1-1.5,2.3-1.5,3.7v7.9
				c0,1.4,0.6,2.7,1.5,3.7c1,1,2.3,1.5,3.7,1.5s2.7-0.6,3.7-1.5c1-1,1.6-2.3,1.6-3.7C388.5,61.6,388.5,58.7,388.5,56.2z"/>
		</g>
	</g>
</g>
</svg>
