<?xml version="1.0" encoding="utf-8"?>
<!-- Generator: Adobe Illustrator 27.8.1, SVG Export Plug-In . SVG Version: 6.00 Build 0)  -->
<svg version="1.1" id="Layer_1" xmlns="http://www.w3.org/2000/svg" xmlns:xlink="http://www.w3.org/1999/xlink" x="0px" y="0px"
	 viewBox="0 0 880.3 126.5" style="enable-background:new 0 0 880.3 126.5;" xml:space="preserve">
<style type="text/css">
	.st0{fill:#FBC546;}
	.st1{fill-rule:evenodd;clip-rule:evenodd;fill:#722245;}
	.st2{fill-rule:evenodd;clip-rule:evenodd;fill:#CA3B8F;}
	.st3{fill-rule:evenodd;clip-rule:evenodd;fill:#FFFFFF;}
	.st4{fill-rule:evenodd;clip-rule:evenodd;}
</style>
<g>
	<g>
		<path class="st0" d="M143.3,86.6c0,8.9-2.3,15.2-6,19.8c-3.7,4.6-8.9,7.9-15.4,10.1c-13.1,4.6-30,4.6-45.1,4.6
			c-15.1,0-32.2,0-45.6-4.6c-6.6-2.3-12-5.5-15.7-10.2c-3.7-4.6-6.1-10.9-6.1-19.8c0-16.6,3.6-36.8,13.8-52.7
			c10-15.7,26.6-27.5,53.6-27.5c25.5,0,41.9,11.8,52.1,27.6C139.3,50,143.3,70.2,143.3,86.6z"/>
		<path d="M76.9,125.1c-14.6,0-32.7,0-46.8-4.8c-7.7-2.6-13.5-6.4-17.5-11.4c-4.6-5.7-6.9-13.2-6.9-22.3c0-12.1,1.9-35.3,14.4-54.9
			C32.4,12.3,51.6,2.4,76.9,2.4c23.9,0,43.1,10.2,55.5,29.4c9.5,14.7,15,34.7,15,54.7c0,9.1-2.3,16.5-6.8,22.3
			c-4,5.1-9.6,8.8-17.2,11.4C109.4,125.1,92.1,125.1,76.9,125.1z M76.9,10.4C54.4,10.4,37.5,19,26.7,36c-8.4,13-13.1,31.5-13.1,50.6
			c0,7.3,1.7,13,5.2,17.3c3.1,3.8,7.6,6.8,13.9,8.9c12.9,4.4,29.5,4.4,44.3,4.4c14.6,0,31.2,0,43.8-4.4c6.1-2.1,10.6-5,13.6-8.9
			c3.4-4.4,5.1-10,5.1-17.4c0-8.8-1.3-31.3-13.7-50.4C114.6,19,98.2,10.4,76.9,10.4z"/>
	</g>
	<g>
		<path class="st1" d="M53.6,92c-7.1-5.4-12.2-13.3-14-22.4h74.1c-1.8,9.1-6.9,17-14,22.4C95.4,87.4,57.8,87.4,53.6,92z"/>
		<path class="st2" d="M53.6,92c4.2-4.6,10.2-7.3,16.7-7.3H83c6.5,0,12.5,2.8,16.7,7.3c-6.4,4.9-14.3,7.8-23,7.8
			C68,99.8,60,96.9,53.6,92z"/>
		<path class="st3" d="M52.1,65.8c3.5,0,6.9-1.4,9.3-3.9c2.5-2.5,3.9-5.8,3.9-9.3c0-2.5,0-5.1,0-7.6c0-7.3-5.9-13.2-13.2-13.2h0
			c-3.5,0-6.9,1.4-9.3,3.9c-2.5,2.5-3.9,5.8-3.9,9.3v7.6C38.8,59.8,44.8,65.8,52.1,65.8L52.1,65.8z"/>
		<path class="st4" d="M46.4,43.1c0-2,0.8-3.9,2.2-5.3c1.4-1.4,3.3-2.2,5.3-2.2c2,0,3.9,0.8,5.3,2.2c1.4,1.4,2.2,3.3,2.2,5.3v11.3
			c0,2-0.8,3.9-2.2,5.3c-1.4,1.4-3.3,2.2-5.3,2.2c-2,0-3.9-0.8-5.3-2.2c-1.4-1.4-2.2-3.3-2.2-5.3C46.4,50.8,46.4,46.6,46.4,43.1z"/>
		<path class="st3" d="M101.2,65.8c-3.5,0-6.9-1.4-9.3-3.9c-2.5-2.5-3.9-5.8-3.9-9.3c0-2.5,0-5.1,0-7.6c0-7.3,5.9-13.2,13.2-13.2h0
			c3.5,0,6.9,1.4,9.3,3.9c2.5,2.5,3.9,5.8,3.9,9.3v7.6C114.4,59.8,108.5,65.8,101.2,65.8L101.2,65.8z"/>
		<path class="st4" d="M106.9,43.1c0-2-0.8-3.9-2.2-5.3c-1.4-1.4-3.3-2.2-5.3-2.2s-3.9,0.8-5.3,2.2c-1.4,1.4-2.2,3.3-2.2,5.3v11.3
			c0,2,0.8,3.9,2.2,5.3c1.4,1.4,3.3,2.2,5.3,2.2s3.9-0.8,5.3-2.2c1.4-1.4,2.2-3.3,2.2-5.3C106.9,50.8,106.9,46.6,106.9,43.1z"/>
	</g>
</g>
<g>
	<g>
		<path class="st0" d="M405.1,82c0,7.1-1.9,12.2-4.8,15.9c-2.9,3.7-7.1,6.3-12.3,8.1c-10.5,3.6-24,3.7-36.1,3.7
			c-12.1,0-25.8,0-36.4-3.7c-5.3-1.8-9.6-4.4-12.6-8.1c-3-3.7-4.9-8.7-4.9-15.8c0-13.3,2.9-29.4,11-42.2c8-12.5,21.3-22,42.9-22
			c20.4,0,33.6,9.4,41.7,22.1C401.9,52.7,405.1,68.9,405.1,82z"/>
		<path d="M351.9,112.8c-11.7,0-26.2,0-37.5-3.9c-6.2-2.1-10.8-5.1-14-9.2c-3.7-4.6-5.6-10.6-5.6-17.8c0-9.7,1.5-28.2,11.5-43.9
			c10-15.5,25.3-23.4,45.5-23.4c19.1,0,34.4,8.1,44.4,23.5c7.6,11.8,12,27.7,12,43.8c0,7.2-1.8,13.2-5.4,17.8
			c-3.2,4.1-7.7,7-13.8,9.2C377.9,112.8,364.1,112.8,351.9,112.8z M351.9,21c-18,0-31.5,6.9-40.2,20.5C305,52,301.2,66.7,301.2,82
			c0,5.8,1.4,10.4,4.2,13.8c2.5,3.1,6.1,5.4,11.1,7.1c10.3,3.5,23.6,3.5,35.4,3.5c11.7,0,25,0,35-3.5c4.9-1.7,8.4-4,10.9-7.1
			c2.7-3.5,4.1-8,4.1-13.9c0-7-1.1-25-10.9-40.3C382.1,28,369,21,351.9,21z"/>
	</g>
	<g>
		<path class="st1" d="M333.3,86.3c-5.7-4.4-9.7-10.7-11.2-17.9h59.2c-1.5,7.3-5.6,13.6-11.2,17.9C366.7,82.7,336.7,82.7,333.3,86.3
			z"/>
		<path class="st2" d="M333.3,86.3c3.4-3.6,8.2-5.8,13.3-5.8h10.1c5.2,0,10,2.2,13.3,5.8c-5.1,3.9-11.5,6.2-18.4,6.2
			C344.8,92.6,338.4,90.2,333.3,86.3z"/>
		<path class="st3" d="M332.1,65.4c2.8,0,5.5-1.1,7.5-3.1c2-2,3.1-4.7,3.1-7.5c0-2,0-4.1,0-6.1c0-5.8-4.7-10.6-10.6-10.6h0
			c-2.8,0-5.5,1.1-7.5,3.1c-2,2-3.1,4.7-3.1,7.5v6.1C321.5,60.6,326.2,65.4,332.1,65.4L332.1,65.4z"/>
		<path class="st4" d="M327.5,47.2c0-1.6,0.6-3.1,1.8-4.3c1.1-1.1,2.7-1.8,4.3-1.8c1.6,0,3.1,0.6,4.3,1.8s1.8,2.7,1.8,4.3v9
			c0,1.6-0.6,3.1-1.8,4.3c-1.1,1.1-2.7,1.8-4.3,1.8c-1.6,0-3.1-0.6-4.3-1.8c-1.1-1.1-1.8-2.7-1.8-4.3
			C327.5,53.4,327.5,50.1,327.5,47.2z"/>
		<path class="st3" d="M371.3,65.4c-2.8,0-5.5-1.1-7.5-3.1c-2-2-3.1-4.7-3.1-7.5c0-2,0-4.1,0-6.1c0-5.8,4.7-10.6,10.6-10.6h0
			c2.8,0,5.5,1.1,7.5,3.1c2,2,3.1,4.7,3.1,7.5v6.1C381.9,60.6,377.2,65.4,371.3,65.4L371.3,65.4z"/>
		<path class="st4" d="M375.9,47.2c0-1.6-0.6-3.1-1.8-4.3c-1.1-1.1-2.7-1.8-4.3-1.8s-3.1,0.6-4.3,1.8c-1.1,1.1-1.8,2.7-1.8,4.3v9
			c0,1.6,0.6,3.1,1.8,4.3c1.1,1.1,2.7,1.8,4.3,1.8s3.1-0.6,4.3-1.8c1.1-1.1,1.8-2.7,1.8-4.3C375.9,53.4,375.9,50.1,375.9,47.2z"/>
	</g>
</g>
<g>
	<g>
		<path class="st0" d="M281.3,84.3c0,8-2.1,13.7-5.4,17.8c-3.3,4.2-8,7.1-13.9,9.1c-11.8,4.1-27,4.1-40.6,4.1c-13.6,0-29,0-41-4.1
			c-5.9-2-10.8-5-14.1-9.2c-3.3-4.1-5.5-9.8-5.5-17.8c0-14.9,3.2-33.1,12.4-47.5c9-14.1,24-24.7,48.2-24.7c23,0,37.7,10.6,46.9,24.8
			C277.7,51.4,281.3,69.6,281.3,84.3z"/>
		<path d="M221.5,119c-13.1,0-29.5,0-42.2-4.3c-7-2.4-12.1-5.7-15.8-10.3c-4.1-5.2-6.3-11.9-6.3-20c0-10.9,1.7-31.8,13-49.4
			c11.2-17.5,28.4-26.4,51.2-26.4c21.5,0,38.8,9.2,49.9,26.5c8.6,13.3,13.5,31.2,13.5,49.3c0,8.1-2.1,14.9-6.1,20
			c-3.6,4.6-8.7,7.9-15.5,10.3C250.8,119,235.2,119,221.5,119z M221.5,15.7c-20.2,0-35.4,7.8-45.2,23.1
			c-7.5,11.7-11.8,28.3-11.8,45.5c0,6.6,1.5,11.7,4.7,15.6c2.8,3.5,6.9,6.1,12.5,8c11.6,4,26.6,4,39.9,4c13.2,0,28.1,0,39.4-3.9
			c5.5-1.9,9.5-4.5,12.2-8c3.1-3.9,4.6-9,4.6-15.6c0-7.9-1.2-28.2-12.3-45.4C255.5,23.5,240.7,15.7,221.5,15.7z"/>
	</g>
	<g>
		<path class="st1" d="M200.6,89.1c-6.4-4.9-11-12-12.6-20.2h66.7c-1.7,8.2-6.2,15.3-12.6,20.2C238.2,85,204.3,85,200.6,89.1z"/>
		<path class="st2" d="M200.6,89.1c3.8-4.1,9.2-6.6,15-6.6H227c5.8,0,11.2,2.5,15,6.6c-5.7,4.4-12.9,7-20.7,7
			C213.5,96.2,206.3,93.6,200.6,89.1z"/>
		<path class="st3" d="M199.2,65.6c3.2,0,6.2-1.3,8.4-3.5c2.2-2.2,3.5-5.3,3.5-8.4c0-2.2,0-4.6,0-6.8c0-6.6-5.3-11.9-11.9-11.9h0
			c-3.2,0-6.2,1.3-8.4,3.5c-2.2,2.2-3.5,5.3-3.5,8.4v6.8C187.2,60.2,192.6,65.6,199.2,65.6L199.2,65.6z"/>
		<path class="st4" d="M194,45.2c0-1.8,0.7-3.5,2-4.8c1.3-1.3,3-2,4.8-2c1.8,0,3.5,0.7,4.8,2c1.3,1.3,2,3,2,4.8v10.1
			c0,1.8-0.7,3.5-2,4.8c-1.3,1.3-3,2-4.8,2c-1.8,0-3.5-0.7-4.8-2c-1.3-1.3-2-3-2-4.8C194,52.1,194,48.3,194,45.2z"/>
		<path class="st3" d="M243.3,65.6c-3.2,0-6.2-1.3-8.4-3.5c-2.2-2.2-3.5-5.3-3.5-8.4c0-2.2,0-4.6,0-6.8c0-6.6,5.3-11.9,11.9-11.9h0
			c3.2,0,6.2,1.3,8.4,3.5c2.2,2.2,3.5,5.3,3.5,8.4v6.8C255.3,60.2,249.9,65.6,243.3,65.6L243.3,65.6z"/>
		<path class="st4" d="M248.5,45.2c0-1.8-0.7-3.5-2-4.8c-1.3-1.3-3-2-4.8-2s-3.5,0.7-4.8,2c-1.3,1.3-2,3-2,4.8v10.1
			c0,1.8,0.7,3.5,2,4.8c1.3,1.3,3,2,4.8,2s3.5-0.7,4.8-2c1.3-1.3,2-3,2-4.8C248.5,52.1,248.5,48.3,248.5,45.2z"/>
	</g>
</g>
<g>
	<g>
		<path class="st0" d="M610.1,77.4c0,5.3-1.4,9.1-3.6,11.9c-2.2,2.8-5.4,4.7-9.2,6.1c-7.9,2.7-18,2.8-27.1,2.8
			c-9.1,0-19.3,0-27.3-2.8c-4-1.4-7.2-3.3-9.4-6.1c-2.2-2.8-3.6-6.5-3.6-11.9c0-10,2.1-22.1,8.3-31.6c6-9.4,16-16.5,32.1-16.5
			c15.3,0,25.2,7.1,31.3,16.6C607.7,55.5,610.1,67.6,610.1,77.4z"/>
		<path d="M570.2,100.6c-8.8,0-19.6,0-28.1-2.9c-4.6-1.6-8.1-3.8-10.5-6.9c-2.8-3.4-4.2-7.9-4.2-13.4c0-7.3,1.1-21.2,8.6-32.9
			c7.5-11.7,19-17.6,34.1-17.6c14.3,0,25.8,6.1,33.3,17.7c5.7,8.8,9,20.8,9,32.8c0,5.4-1.4,9.9-4.1,13.4c-2.4,3-5.8,5.3-10.3,6.9
			C589.8,100.6,579.4,100.6,570.2,100.6z M570.2,31.7c-13.5,0-23.6,5.2-30.1,15.4c-5,7.8-7.9,18.9-7.9,30.3c0,4.4,1,7.8,3.1,10.4
			c1.9,2.3,4.6,4.1,8.3,5.3c7.7,2.6,17.7,2.6,26.6,2.6c8.8,0,18.7,0,26.3-2.6c3.7-1.3,6.3-3,8.1-5.3c2.1-2.6,3.1-6,3.1-10.4
			c0-5.3-0.8-18.8-8.2-30.3C592.9,36.9,583.1,31.7,570.2,31.7z"/>
	</g>
	<g>
		<path class="st1" d="M556.3,80.7c-4.3-3.3-7.3-8-8.4-13.5h44.4c-1.1,5.4-4.2,10.2-8.4,13.5C581.4,78,558.8,78,556.3,80.7z"/>
		<path class="st2" d="M556.3,80.7c2.5-2.7,6.1-4.4,10-4.4h7.6c3.9,0,7.5,1.7,10,4.4c-3.8,2.9-8.6,4.7-13.8,4.7
			C564.9,85.4,560.1,83.6,556.3,80.7z"/>
		<path class="st3" d="M555.4,65c2.1,0,4.1-0.8,5.6-2.3c1.5-1.5,2.3-3.5,2.3-5.6c0-1.5,0-3,0-4.5c0-4.4-3.6-7.9-7.9-7.9h0
			c-2.1,0-4.1,0.8-5.6,2.3c-1.5,1.5-2.3,3.5-2.3,5.6V57C547.4,61.4,551,65,555.4,65L555.4,65z"/>
		<path class="st4" d="M552,51.4c0-1.2,0.5-2.4,1.3-3.2s2-1.3,3.2-1.3c1.2,0,2.4,0.5,3.2,1.3c0.9,0.9,1.3,2,1.3,3.2v6.8
			c0,1.2-0.5,2.4-1.3,3.2c-0.9,0.9-2,1.3-3.2,1.3c-1.2,0-2.4-0.5-3.2-1.3c-0.9-0.9-1.3-2-1.3-3.2C552,56,552,53.5,552,51.4z"/>
		<path class="st3" d="M584.8,65c-2.1,0-4.1-0.8-5.6-2.3c-1.5-1.5-2.3-3.5-2.3-5.6c0-1.5,0-3,0-4.5c0-4.4,3.6-7.9,7.9-7.9h0
			c2.1,0,4.1,0.8,5.6,2.3c1.5,1.5,2.3,3.5,2.3,5.6V57C592.8,61.4,589.2,65,584.8,65L584.8,65z"/>
		<path class="st4" d="M588.2,51.4c0-1.2-0.5-2.4-1.3-3.2c-0.9-0.9-2-1.3-3.2-1.3c-1.2,0-2.4,0.5-3.2,1.3c-0.9,0.9-1.3,2-1.3,3.2
			v6.8c0,1.2,0.5,2.4,1.3,3.2c0.9,0.9,2,1.3,3.2,1.3c1.2,0,2.4-0.5,3.2-1.3c0.9-0.9,1.3-2,1.3-3.2C588.2,56,588.2,53.5,588.2,51.4z"
			/>
	</g>
</g>
<g>
	<g>
		<path class="st0" d="M514.7,79.7c0,6.2-1.6,10.7-4.2,13.9c-2.6,3.3-6.3,5.5-10.8,7.1c-9.2,3.2-21,3.2-31.6,3.2
			c-10.6,0-22.5,0-31.9-3.2c-4.6-1.6-8.4-3.9-11-7.1c-2.6-3.2-4.2-7.6-4.2-13.9c0-11.6,2.5-25.8,9.6-36.9c7-11,18.6-19.2,37.5-19.2
			c17.9,0,29.4,8.3,36.5,19.3C511.9,54.1,514.7,68.3,514.7,79.7z"/>
		<path d="M468.2,106.7c-10.2,0-22.9,0-32.8-3.4c-5.4-1.8-9.4-4.5-12.3-8c-3.2-4-4.9-9.3-4.9-15.6c0-8.5,1.3-24.7,10.1-38.4
			c8.7-13.6,22.1-20.5,39.8-20.5c16.7,0,30.1,7.1,38.8,20.6c6.7,10.3,10.5,24.3,10.5,38.3c0,6.3-1.6,11.6-4.8,15.6
			c-2.8,3.5-6.7,6.2-12.1,8C490.9,106.7,478.8,106.7,468.2,106.7z M468.2,26.4c-15.7,0-27.5,6-35.2,17.9c-5.8,9.1-9.2,22-9.2,35.4
			c0,5.1,1.2,9.1,3.6,12.1c2.2,2.7,5.3,4.7,9.7,6.2c9,3.1,20.7,3.1,31,3.1c10.2,0,21.8,0,30.7-3.1c4.3-1.5,7.4-3.5,9.5-6.2
			c2.4-3,3.6-7,3.6-12.2c0-6.2-0.9-21.9-9.6-35.3C494.6,32.5,483.1,26.4,468.2,26.4z"/>
	</g>
	<g>
		<path class="st1" d="M451.9,83.5c-5-3.8-8.5-9.3-9.8-15.7h51.8c-1.3,6.4-4.9,11.9-9.8,15.7C481.1,80.3,454.8,80.3,451.9,83.5z"/>
		<path class="st2" d="M451.9,83.5c2.9-3.2,7.1-5.1,11.7-5.1h8.9c4.5,0,8.7,1.9,11.7,5.1c-4.5,3.4-10,5.5-16.1,5.5
			C461.9,89,456.3,86.9,451.9,83.5z"/>
		<path class="st3" d="M450.8,65.2c2.5,0,4.8-1,6.5-2.7c1.7-1.7,2.7-4.1,2.7-6.5c0-1.7,0-3.6,0-5.3c0-5.1-4.1-9.3-9.3-9.3h0
			c-2.5,0-4.8,1-6.5,2.7c-1.7,1.7-2.7,4.1-2.7,6.5v5.3C441.5,61,445.7,65.2,450.8,65.2L450.8,65.2z"/>
		<path class="st4" d="M446.8,49.3c0-1.4,0.6-2.7,1.6-3.7c1-1,2.3-1.6,3.7-1.6c1.4,0,2.7,0.6,3.7,1.6s1.5,2.3,1.5,3.7v7.9
			c0,1.4-0.6,2.7-1.5,3.7c-1,1-2.3,1.5-3.7,1.5c-1.4,0-2.7-0.6-3.7-1.5c-1-1-1.6-2.3-1.6-3.7C446.8,54.7,446.8,51.8,446.8,49.3z"/>
		<path class="st3" d="M485.2,65.2c-2.5,0-4.8-1-6.5-2.7c-1.7-1.7-2.7-4.1-2.7-6.5c0-1.7,0-3.6,0-5.3c0-5.1,4.1-9.3,9.3-9.3h0
			c2.5,0,4.8,1,6.5,2.7c1.7,1.7,2.7,4.1,2.7,6.5v5.3C494.4,61,490.3,65.2,485.2,65.2L485.2,65.2z"/>
		<path class="st4" d="M489.1,49.3c0-1.4-0.6-2.7-1.6-3.7c-1-1-2.3-1.6-3.7-1.6c-1.4,0-2.7,0.6-3.7,1.6c-1,1-1.5,2.3-1.5,3.7v7.9
			c0,1.4,0.6,2.7,1.5,3.7c1,1,2.3,1.5,3.7,1.5c1.4,0,2.7-0.6,3.7-1.5c1-1,1.6-2.3,1.6-3.7C489.1,54.7,489.1,51.8,489.1,49.3z"/>
	</g>
</g>
<g>
	<g>
		<path class="st0" d="M758.5,72.9c0,3.6-0.9,6.1-2.4,7.9c-1.5,1.9-3.6,3.2-6.2,4.1c-5.2,1.8-12,1.8-18,1.8c-6,0-12.9,0-18.2-1.8
			c-2.6-0.9-4.8-2.2-6.3-4.1c-1.5-1.8-2.4-4.4-2.4-7.9c0-6.6,1.4-14.7,5.5-21.1c4-6.3,10.7-11,21.4-11c10.2,0,16.8,4.7,20.9,11
			C756.9,58.2,758.5,66.3,758.5,72.9z"/>
		<path d="M731.9,88.3c-5.8,0-13.1,0-18.7-1.9c-3.1-1.1-5.4-2.6-7-4.6c-1.8-2.3-2.8-5.3-2.8-8.9c0-4.8,0.7-14.1,5.8-21.9
			c5-7.8,12.6-11.7,22.8-11.7c9.6,0,17.2,4.1,22.2,11.8c3.8,5.9,6,13.9,6,21.9c0,3.6-0.9,6.6-2.7,8.9c-1.6,2-3.8,3.5-6.9,4.6
			C744.9,88.3,738,88.3,731.9,88.3z M731.9,42.4c-9,0-15.7,3.4-20.1,10.3c-3.3,5.2-5.3,12.6-5.3,20.2c0,2.9,0.7,5.2,2.1,6.9
			c1.2,1.5,3.1,2.7,5.6,3.6c5.1,1.8,11.8,1.8,17.7,1.8c5.8,0,12.5,0,17.5-1.8c2.4-0.9,4.2-2,5.4-3.5c1.4-1.7,2-4,2-6.9
			c0-3.5-0.5-12.5-5.5-20.2C747,45.9,740.4,42.4,731.9,42.4z"/>
	</g>
	<g>
		<path class="st1" d="M722.6,75c-2.8-2.2-4.9-5.3-5.6-9h29.6c-0.7,3.6-2.8,6.8-5.6,9C739.3,73.2,724.3,73.2,722.6,75z"/>
		<path class="st2" d="M722.6,75c1.7-1.8,4.1-2.9,6.7-2.9h5.1c2.6,0,5,1.1,6.7,2.9c-2.5,2-5.7,3.1-9.2,3.1
			C728.3,78.2,725.1,77,722.6,75z"/>
		<path class="st3" d="M722,64.6c1.4,0,2.7-0.6,3.7-1.5c1-1,1.5-2.3,1.5-3.7c0-1,0-2,0-3c0-2.9-2.4-5.3-5.3-5.3h0
			c-1.4,0-2.7,0.6-3.7,1.5c-1,1-1.5,2.3-1.5,3.7v3C716.7,62.2,719,64.6,722,64.6L722,64.6z"/>
		<path class="st4" d="M719.7,55.5c0-0.8,0.3-1.6,0.9-2.1c0.6-0.6,1.3-0.9,2.1-0.9c0.8,0,1.6,0.3,2.1,0.9c0.6,0.6,0.9,1.3,0.9,2.1
			V60c0,0.8-0.3,1.6-0.9,2.1c-0.6,0.6-1.3,0.9-2.1,0.9c-0.8,0-1.6-0.3-2.1-0.9c-0.6-0.6-0.9-1.3-0.9-2.1
			C719.7,58.6,719.7,56.9,719.7,55.5z"/>
		<path class="st3" d="M741.6,64.6c-1.4,0-2.7-0.6-3.7-1.5c-1-1-1.5-2.3-1.5-3.7c0-1,0-2,0-3c0-2.9,2.4-5.3,5.3-5.3h0
			c1.4,0,2.7,0.6,3.7,1.5c1,1,1.5,2.3,1.5,3.7v3C746.9,62.2,744.5,64.6,741.6,64.6L741.6,64.6z"/>
		<path class="st4" d="M743.9,55.5c0-0.8-0.3-1.6-0.9-2.1c-0.6-0.6-1.3-0.9-2.1-0.9s-1.6,0.3-2.1,0.9c-0.6,0.6-0.9,1.3-0.9,2.1V60
			c0,0.8,0.3,1.6,0.9,2.1c0.6,0.6,1.3,0.9,2.1,0.9s1.6-0.3,2.1-0.9c0.6-0.6,0.9-1.3,0.9-2.1C743.9,58.6,743.9,56.9,743.9,55.5z"/>
	</g>
</g>
<g>
	<g>
		<path class="st0" d="M691.4,75.2c0,4.4-1.2,7.6-3,9.9c-1.8,2.3-4.5,4-7.7,5.1c-6.6,2.3-15,2.3-22.5,2.3c-7.6,0-16.1,0-22.8-2.3
			c-3.3-1.1-6-2.8-7.9-5.1c-1.8-2.3-3-5.5-3-9.9c0-8.3,1.8-18.4,6.9-26.4c5-7.8,13.3-13.7,26.8-13.7c12.8,0,21,5.9,26.1,13.8
			C689.4,56.9,691.4,67,691.4,75.2z"/>
		<path d="M658.2,94.4c-7.3,0-16.4,0-23.4-2.4c-3.9-1.3-6.7-3.2-8.8-5.7c-2.3-2.9-3.5-6.6-3.5-11.1c0-6,0.9-17.7,7.2-27.4
			c6.2-9.7,15.8-14.6,28.5-14.6c11.9,0,21.5,5.1,27.7,14.7c4.8,7.4,7.5,17.3,7.5,27.4c0,4.5-1.1,8.3-3.4,11.1
			c-2,2.5-4.8,4.4-8.6,5.7C674.4,94.4,665.8,94.4,658.2,94.4z M658.2,37.1c-11.2,0-19.7,4.3-25.1,12.8c-4.2,6.5-6.6,15.7-6.6,25.3
			c0,3.6,0.8,6.5,2.6,8.7c1.5,1.9,3.8,3.4,6.9,4.4c6.4,2.2,14.8,2.2,22.1,2.2c7.3,0,15.6,0,21.9-2.2c3.1-1.1,5.3-2.5,6.8-4.4
			c1.7-2.2,2.6-5,2.6-8.7c0-4.4-0.7-15.6-6.8-25.2C677,41.4,668.8,37.1,658.2,37.1z"/>
	</g>
	<g>
		<path class="st1" d="M646.5,77.9c-3.5-2.7-6.1-6.7-7-11.2h37c-0.9,4.5-3.5,8.5-7,11.2C667.4,75.6,648.6,75.6,646.5,77.9z"/>
		<path class="st2" d="M646.5,77.9c2.1-2.3,5.1-3.7,8.3-3.7h6.3c3.2,0,6.2,1.4,8.3,3.7c-3.2,2.4-7.2,3.9-11.5,3.9
			C653.7,81.8,649.7,80.3,646.5,77.9z"/>
		<path class="st3" d="M645.7,64.8c1.8,0,3.4-0.7,4.7-1.9c1.2-1.2,1.9-2.9,1.9-4.7c0-1.2,0-2.5,0-3.8c0-3.7-3-6.6-6.6-6.6h0
			c-1.8,0-3.4,0.7-4.7,1.9c-1.2,1.2-1.9,2.9-1.9,4.7v3.8C639.1,61.8,642.1,64.8,645.7,64.8L645.7,64.8z"/>
		<path class="st4" d="M642.9,53.4c0-1,0.4-2,1.1-2.7c0.7-0.7,1.7-1.1,2.7-1.1c1,0,2,0.4,2.7,1.1s1.1,1.7,1.1,2.7v5.6
			c0,1-0.4,2-1.1,2.7c-0.7,0.7-1.7,1.1-2.7,1.1c-1,0-2-0.4-2.7-1.1c-0.7-0.7-1.1-1.7-1.1-2.7C642.9,57.3,642.9,55.2,642.9,53.4z"/>
		<path class="st3" d="M670.3,64.8c-1.8,0-3.4-0.7-4.7-1.9c-1.2-1.2-1.9-2.9-1.9-4.7c0-1.2,0-2.5,0-3.8c0-3.7,3-6.6,6.6-6.6h0
			c1.8,0,3.4,0.7,4.7,1.9c1.2,1.2,1.9,2.9,1.9,4.7v3.8C676.9,61.8,674,64.8,670.3,64.8L670.3,64.8z"/>
		<path class="st4" d="M673.1,53.4c0-1-0.4-2-1.1-2.7c-0.7-0.7-1.7-1.1-2.7-1.1c-1,0-2,0.4-2.7,1.1c-0.7,0.7-1.1,1.7-1.1,2.7v5.6
			c0,1,0.4,2,1.1,2.7c0.7,0.7,1.7,1.1,2.7,1.1c1,0,2-0.4,2.7-1.1c0.7-0.7,1.1-1.7,1.1-2.7C673.1,57.3,673.1,55.2,673.1,53.4z"/>
	</g>
</g>
<g>
	<g>
		<path class="st0" d="M850.1,68.3c0,1.8-0.5,3-1.2,4c-0.7,0.9-1.8,1.6-3.1,2c-2.6,0.9-6,0.9-9,0.9c-3,0-6.4,0-9.1-0.9
			c-1.3-0.5-2.4-1.1-3.1-2c-0.7-0.9-1.2-2.2-1.2-4c0-3.3,0.7-7.4,2.8-10.5c2-3.1,5.3-5.5,10.7-5.5c5.1,0,8.4,2.4,10.4,5.5
			C849.3,61,850.1,65,850.1,68.3z"/>
		<path d="M836.8,76c-2.9,0-6.5,0-9.4-1c-1.5-0.5-2.7-1.3-3.5-2.3c-0.9-1.1-1.4-2.6-1.4-4.5c0-2.4,0.4-7.1,2.9-11
			c2.5-3.9,6.3-5.9,11.4-5.9c4.8,0,8.6,2,11.1,5.9c1.9,2.9,3,6.9,3,10.9c0,1.8-0.5,3.3-1.4,4.5c-0.8,1-1.9,1.8-3.4,2.3
			C843.3,76,839.9,76,836.8,76z M836.8,53.1c-4.5,0-7.9,1.7-10,5.1c-1.7,2.6-2.6,6.3-2.6,10.1c0,1.5,0.3,2.6,1,3.5
			c0.6,0.8,1.5,1.4,2.8,1.8c2.6,0.9,5.9,0.9,8.9,0.9c2.9,0,6.2,0,8.8-0.9c1.2-0.4,2.1-1,2.7-1.8c0.7-0.9,1-2,1-3.5
			c0-1.8-0.3-6.3-2.7-10.1C844.4,54.8,841.1,53.1,836.8,53.1z"/>
	</g>
	<g>
		<path class="st1" d="M832.2,69.4c-1.4-1.1-2.4-2.7-2.8-4.5h14.8c-0.4,1.8-1.4,3.4-2.8,4.5C840.5,68.5,833,68.5,832.2,69.4z"/>
		<path class="st2" d="M832.2,69.4c0.8-0.9,2-1.5,3.3-1.5h2.5c1.3,0,2.5,0.6,3.3,1.5c-1.3,1-2.9,1.6-4.6,1.6
			C835.1,71,833.5,70.4,832.2,69.4z"/>
		<path class="st3" d="M831.9,64.2c0.7,0,1.4-0.3,1.9-0.8c0.5-0.5,0.8-1.2,0.8-1.9c0-0.5,0-1,0-1.5c0-1.5-1.2-2.6-2.6-2.6h0
			c-0.7,0-1.4,0.3-1.9,0.8c-0.5,0.5-0.8,1.2-0.8,1.9v1.5C829.2,63,830.4,64.2,831.9,64.2L831.9,64.2z"/>
		<path class="st4" d="M830.7,59.6c0-0.4,0.2-0.8,0.4-1.1c0.3-0.3,0.7-0.4,1.1-0.4c0.4,0,0.8,0.2,1.1,0.4c0.3,0.3,0.4,0.7,0.4,1.1
			v2.3c0,0.4-0.2,0.8-0.4,1.1c-0.3,0.3-0.7,0.4-1.1,0.4c-0.4,0-0.8-0.2-1.1-0.4c-0.3-0.3-0.4-0.7-0.4-1.1
			C830.7,61.2,830.7,60.3,830.7,59.6z"/>
		<path class="st3" d="M841.7,64.2c-0.7,0-1.4-0.3-1.9-0.8c-0.5-0.5-0.8-1.2-0.8-1.9c0-0.5,0-1,0-1.5c0-1.5,1.2-2.6,2.6-2.6h0
			c0.7,0,1.4,0.3,1.9,0.8c0.5,0.5,0.8,1.2,0.8,1.9v1.5C844.3,63,843.2,64.2,841.7,64.2L841.7,64.2z"/>
		<path class="st4" d="M842.8,59.6c0-0.4-0.2-0.8-0.4-1.1c-0.3-0.3-0.7-0.4-1.1-0.4s-0.8,0.2-1.1,0.4c-0.3,0.3-0.4,0.7-0.4,1.1v2.3
			c0,0.4,0.2,0.8,0.4,1.1c0.3,0.3,0.7,0.4,1.1,0.4s0.8-0.2,1.1-0.4c0.3-0.3,0.4-0.7,0.4-1.1C842.8,61.2,842.8,60.3,842.8,59.6z"/>
	</g>
</g>
<g>
	<g>
		<path class="st0" d="M811.4,70.6c0,2.7-0.7,4.6-1.8,5.9c-1.1,1.4-2.7,2.4-4.6,3C801,81,796,81,791.5,81c-4.5,0-9.7,0-13.7-1.4
			c-2-0.7-3.6-1.7-4.7-3.1c-1.1-1.4-1.8-3.3-1.8-5.9c0-5,1.1-11,4.1-15.8c3-4.7,8-8.2,16.1-8.2c7.7,0,12.6,3.5,15.6,8.3
			C810.2,59.6,811.4,65.7,811.4,70.6z"/>
		<path d="M791.5,82.2c-4.4,0-9.8,0-14.1-1.4c-2.3-0.8-4-1.9-5.3-3.4c-1.4-1.7-2.1-4-2.1-6.7c0-3.6,0.6-10.6,4.3-16.5
			c3.7-5.8,9.5-8.8,17.1-8.8c7.2,0,12.9,3.1,16.6,8.8c2.9,4.4,4.5,10.4,4.5,16.4c0,2.7-0.7,5-2,6.7c-1.2,1.5-2.9,2.6-5.2,3.4
			C801.2,82.2,796,82.2,791.5,82.2z M791.5,47.7c-6.7,0-11.8,2.6-15.1,7.7c-2.5,3.9-3.9,9.4-3.9,15.2c0,2.2,0.5,3.9,1.6,5.2
			c0.9,1.2,2.3,2,4.2,2.7c3.9,1.3,8.9,1.3,13.3,1.3c4.4,0,9.4,0,13.1-1.3c1.8-0.6,3.2-1.5,4.1-2.7c1-1.3,1.5-3,1.5-5.2
			c0-2.6-0.4-9.4-4.1-15.1C802.8,50.3,797.9,47.7,791.5,47.7z"/>
	</g>
	<g>
		<path class="st1" d="M784.5,72.2c-2.1-1.6-3.7-4-4.2-6.7h22.2c-0.6,2.7-2.1,5.1-4.2,6.7C797,70.9,785.7,70.9,784.5,72.2z"/>
		<path class="st2" d="M784.5,72.2c1.3-1.4,3.1-2.2,5-2.2h3.8c1.9,0,3.7,0.8,5,2.2c-1.9,1.5-4.3,2.3-6.9,2.3
			C788.8,74.6,786.4,73.7,784.5,72.2z"/>
		<path class="st3" d="M784,64.4c1.1,0,2.1-0.4,2.8-1.2c0.7-0.7,1.2-1.8,1.2-2.8c0-0.7,0-1.5,0-2.3c0-2.2-1.8-4-4-4h0
			c-1.1,0-2.1,0.4-2.8,1.2c-0.7,0.7-1.2,1.8-1.2,2.8v2.3C780,62.6,781.8,64.4,784,64.4L784,64.4z"/>
		<path class="st4" d="M782.3,57.6c0-0.6,0.2-1.2,0.7-1.6c0.4-0.4,1-0.7,1.6-0.7c0.6,0,1.2,0.2,1.6,0.7c0.4,0.4,0.7,1,0.7,1.6v3.4
			c0,0.6-0.2,1.2-0.7,1.6c-0.4,0.4-1,0.7-1.6,0.7c-0.6,0-1.2-0.2-1.6-0.7c-0.4-0.4-0.7-1-0.7-1.6C782.3,59.9,782.3,58.6,782.3,57.6z
			"/>
		<path class="st3" d="M798.7,64.4c-1.1,0-2.1-0.4-2.8-1.2c-0.7-0.7-1.2-1.8-1.2-2.8c0-0.7,0-1.5,0-2.3c0-2.2,1.8-4,4-4h0
			c1.1,0,2.1,0.4,2.8,1.2c0.7,0.7,1.2,1.8,1.2,2.8v2.3C802.7,62.6,800.9,64.4,798.7,64.4L798.7,64.4z"/>
		<path class="st4" d="M800.4,57.6c0-0.6-0.2-1.2-0.7-1.6c-0.4-0.4-1-0.7-1.6-0.7c-0.6,0-1.2,0.2-1.6,0.7c-0.4,0.4-0.7,1-0.7,1.6
			v3.4c0,0.6,0.2,1.2,0.7,1.6c0.4,0.4,1,0.7,1.6,0.7c0.6,0,1.2-0.2,1.6-0.7c0.4-0.4,0.7-1,0.7-1.6C800.4,59.9,800.4,58.6,800.4,57.6
			z"/>
	</g>
</g>
<g>
	<g>
		<path class="st0" d="M874.7,66c0,0.9-0.2,1.5-0.6,2c-0.4,0.5-0.9,0.8-1.5,1c-1.3,0.5-3,0.5-4.5,0.5c-1.5,0-3.2,0-4.6-0.5
			c-0.7-0.2-1.2-0.6-1.6-1c-0.4-0.5-0.6-1.1-0.6-2c0-1.7,0.4-3.7,1.4-5.3c1-1.6,2.7-2.7,5.4-2.7c2.6,0,4.2,1.2,5.2,2.8
			C874.3,62.4,874.7,64.4,874.7,66z"/>
		<path d="M868.1,69.9c-1.5,0-3.3,0-4.7-0.5c-0.8-0.3-1.3-0.6-1.8-1.1c-0.5-0.6-0.7-1.3-0.7-2.2c0-1.2,0.2-3.5,1.4-5.5
			c1.2-1.9,3.2-2.9,5.7-2.9c2.4,0,4.3,1,5.5,2.9c1,1.5,1.5,3.5,1.5,5.5c0,0.9-0.2,1.7-0.7,2.2c-0.4,0.5-1,0.9-1.7,1.1
			C871.3,69.9,869.6,69.9,868.1,69.9z M868.1,58.4c-2.2,0-3.9,0.9-5,2.6c-0.8,1.3-1.3,3.1-1.3,5.1c0,0.7,0.2,1.3,0.5,1.7
			c0.3,0.4,0.8,0.7,1.4,0.9c1.3,0.4,3,0.4,4.4,0.4c1.5,0,3.1,0,4.4-0.4c0.6-0.2,1.1-0.5,1.4-0.9c0.3-0.4,0.5-1,0.5-1.7
			c0-0.9-0.1-3.1-1.4-5C871.8,59.3,870.2,58.4,868.1,58.4z"/>
	</g>
	<g>
		<path class="st1" d="M865.7,66.6c-0.7-0.5-1.2-1.3-1.4-2.2h7.4c-0.2,0.9-0.7,1.7-1.4,2.2C869.9,66.1,866.2,66.1,865.7,66.6z"/>
		<path class="st2" d="M865.7,66.6c0.4-0.5,1-0.7,1.7-0.7h1.3c0.6,0,1.2,0.3,1.7,0.7c-0.6,0.5-1.4,0.8-2.3,0.8
			C867.2,67.4,866.4,67.1,865.7,66.6z"/>
		<path class="st3" d="M865.6,64c0.4,0,0.7-0.1,0.9-0.4s0.4-0.6,0.4-0.9c0-0.2,0-0.5,0-0.8c0-0.7-0.6-1.3-1.3-1.3h0
			c-0.4,0-0.7,0.1-0.9,0.4c-0.2,0.2-0.4,0.6-0.4,0.9v0.8C864.3,63.4,864.8,64,865.6,64L865.6,64z"/>
		<path class="st4" d="M865,61.7c0-0.2,0.1-0.4,0.2-0.5c0.1-0.1,0.3-0.2,0.5-0.2s0.4,0.1,0.5,0.2c0.1,0.1,0.2,0.3,0.2,0.5v1.1
			c0,0.2-0.1,0.4-0.2,0.5c-0.1,0.1-0.3,0.2-0.5,0.2s-0.4-0.1-0.5-0.2c-0.1-0.1-0.2-0.3-0.2-0.5C865,62.5,865,62,865,61.7z"/>
		<path class="st3" d="M870.5,64c-0.4,0-0.7-0.1-0.9-0.4c-0.2-0.2-0.4-0.6-0.4-0.9c0-0.2,0-0.5,0-0.8c0-0.7,0.6-1.3,1.3-1.3h0
			c0.4,0,0.7,0.1,0.9,0.4c0.2,0.2,0.4,0.6,0.4,0.9v0.8C871.8,63.4,871.2,64,870.5,64L870.5,64z"/>
		<path class="st4" d="M871.1,61.7c0-0.2-0.1-0.4-0.2-0.5c-0.1-0.1-0.3-0.2-0.5-0.2c-0.2,0-0.4,0.1-0.5,0.2
			c-0.1,0.1-0.2,0.3-0.2,0.5v1.1c0,0.2,0.1,0.4,0.2,0.5c0.1,0.1,0.3,0.2,0.5,0.2c0.2,0,0.4-0.1,0.5-0.2c0.1-0.1,0.2-0.3,0.2-0.5
			C871.1,62.5,871.1,62,871.1,61.7z"/>
	</g>
</g>
</svg>
