<?xml version="1.0" encoding="utf-8"?>
<!-- Generator: Adobe Illustrator 27.1.1, SVG Export Plug-In . SVG Version: 6.00 Build 0)  -->
<svg version="1.1" id="Layer_1" xmlns="http://www.w3.org/2000/svg" xmlns:xlink="http://www.w3.org/1999/xlink" x="0px" y="0px"
	 viewBox="0 0 65.2 61" style="enable-background:new 0 0 65.2 61;" xml:space="preserve">
<style type="text/css">
	.st0{fill:#FFFFFF;}
	.st1{fill-rule:evenodd;clip-rule:evenodd;fill:#FFFFFF;}
</style>
<path class="st0" d="M30.2,61c-7.6,0-16.3,0-23.3-2.4c-3.8-1.3-6.7-3.2-8.7-5.7c-2.3-2.9-3.5-6.6-3.5-11.1c0-6,0.9-17.6,7.2-27.3
	C8.1,4.9,17.6,0,30.2,0C42,0,51.6,5.1,57.8,14.6c4.7,7.3,7.4,17.2,7.4,27.2c0,4.5-1.1,8.2-3.4,11.1c-2,2.5-4.8,4.4-8.6,5.7
	C46.3,61,37.8,61,30.2,61z M30.2,3.9c-11.2,0-19.6,4.3-25,12.7C1,23.2-1.3,32.3-1.3,41.8c0,3.6,0.8,6.4,2.6,8.6
	c1.5,1.9,3.8,3.4,6.9,4.4c6.4,2.2,14.7,2.2,22,2.2c7.3,0,15.5,0,21.8-2.2c3-1.1,5.2-2.5,6.8-4.4c1.7-2.2,2.5-5,2.5-8.6
	c0-4.4-0.7-15.6-6.8-25.1C48.9,8.3,40.8,3.9,30.2,3.9z"/>
<path class="st1" d="M27.6,28.8c0.6,0.6,1.4,0.9,2.2,0.9s1.6-0.3,2.2-0.9c3.4-3.4,9.5-9.5,9.5-9.5c4.4,3.5,7.2,8.8,7.2,14.8
	c0,5.5-2.3,10.4-6.1,13.9c-0.6,0.6-1.6,0.5-2.1-0.1c-0.7-0.7-1.6-1.5-2.3-2.2c-0.3-0.3-0.5-0.7-0.5-1.2c0-0.4,0.2-0.8,0.5-1.1
	c2.5-2.3,4.1-5.6,4.1-9.3H29.8H17.2c0,3.7,1.6,7,4.1,9.3c0.3,0.3,0.5,0.7,0.5,1.1c0,0.4-0.1,0.8-0.5,1.1c-0.7,0.7-1.6,1.6-2.2,2.3
	c-0.6,0.6-1.5,0.6-2.2,0.1c-3.7-3.5-6.1-8.4-6.1-13.9c0-6,2.8-11.4,7.2-14.8C18.1,19.3,24.2,25.4,27.6,28.8z"/>
</svg>
