<svg width="632" height="148" viewBox="0 0 632 148" fill="none" xmlns="http://www.w3.org/2000/svg">
<g clip-path="url(#clip0)">
<path d="M63.79 18.6401C1.48 18.6401 0 88.5001 0 102.33C0 116.16 28.56 127.36 63.79 127.36C99.03 127.36 127.58 116.15 127.58 102.33C127.58 88.5001 126.11 18.6401 63.79 18.6401Z" fill="#FCC21B"/>
<path d="M109.54 100.9C100.04 104.31 89.5602 99.5001 86.1002 90.1201C82.6602 80.7501 87.5302 70.3801 97.0302 66.9501C106.5 63.5401 117.01 68.3701 120.48 77.7401C123.92 87.1301 119.02 97.5001 109.54 100.9Z" fill="#FCC21B"/>
<path d="M109.31 100.27C100.16 103.56 90.0704 98.9202 86.7504 89.9002C83.4404 80.8802 88.1304 70.9002 97.2704 67.6002C106.39 64.3202 116.5 68.9702 119.84 77.9902C123.15 87.0102 118.43 96.9902 109.31 100.27Z" fill="#FCC01C"/>
<path d="M109.07 99.6301C100.28 102.79 90.5799 98.3401 87.3799 89.6601C84.1999 81.0001 88.7199 71.4001 97.4999 68.2301C106.27 65.0801 115.98 69.5401 119.19 78.2101C122.37 86.8901 117.84 96.4901 109.07 99.6301Z" fill="#FCBE1C"/>
<path d="M108.841 99.0003C100.401 102.03 91.1005 97.7603 88.0305 89.4303C84.9705 81.1103 89.3006 71.9003 97.7306 68.8603C106.141 65.8303 115.471 70.1203 118.551 78.4403C121.601 86.7703 117.261 95.9803 108.841 99.0003Z" fill="#FBBB1D"/>
<path d="M108.611 98.3604C100.531 101.26 91.6107 97.1704 88.6807 89.1904C85.7507 81.2204 89.9007 72.4004 97.9807 69.4904C106.041 66.5904 114.971 70.7004 117.921 78.6704C120.831 86.6504 116.671 95.4704 108.611 98.3604Z" fill="#FBB91E"/>
<path d="M108.37 97.73C100.64 100.51 92.1204 96.59 89.3104 88.97C86.5104 81.35 90.4804 72.92 98.2004 70.13C105.9 67.36 114.44 71.28 117.26 78.9C120.06 86.53 116.08 94.96 108.37 97.73Z" fill="#FBB71E"/>
<path d="M108.14 97.1003C100.77 99.7503 92.6397 96.0103 89.9597 88.7403C87.2897 81.4703 91.0697 73.4303 98.4397 70.7703C105.79 68.1303 113.94 71.8703 116.63 79.1403C119.29 86.4103 115.49 94.4603 108.14 97.1003Z" fill="#FBB51F"/>
<path d="M107.9 96.46C100.88 98.98 93.1402 95.43 90.6002 88.5C88.0602 81.58 91.6602 73.93 98.6702 71.4C105.67 68.88 113.42 72.45 115.98 79.37C118.52 86.29 114.9 93.95 107.9 96.46Z" fill="#FAB220"/>
<path d="M107.671 95.83C101.011 98.22 93.6606 94.85 91.2406 88.28C88.8306 81.71 92.2506 74.44 98.9006 72.04C105.541 69.65 112.901 73.04 115.331 79.6C117.751 86.17 114.311 93.44 107.671 95.83Z" fill="#FAB020"/>
<path d="M107.44 95.1902C101.13 97.4502 94.18 94.2602 91.89 88.0402C89.61 81.8202 92.84 74.9402 99.14 72.6702C105.43 70.4102 112.4 73.6102 114.7 79.8302C116.98 86.0502 113.73 92.9302 107.44 95.1902Z" fill="#FAAE21"/>
<path d="M107.2 94.56C101.25 96.7 94.6897 93.68 92.5197 87.81C90.3697 81.94 93.4197 75.4501 99.3597 73.3101C105.29 71.1801 111.87 74.2 114.04 80.07C116.2 85.93 113.14 92.43 107.2 94.56Z" fill="#FAAC22"/>
<path d="M106.97 93.9201C101.38 95.9301 95.1999 93.1001 93.1699 87.5701C91.1399 82.0601 94.0199 75.9501 99.6099 73.9301C105.19 71.9201 111.37 74.7701 113.41 80.2801C115.43 85.8101 112.55 91.9201 106.97 93.9201Z" fill="#F9A922"/>
<path d="M106.74 93.2903C101.5 95.1703 95.7203 92.5203 93.8203 87.3503C91.9203 82.1903 94.6103 76.4703 99.8503 74.5803C105.08 72.7003 110.87 75.3603 112.78 80.5303C114.66 85.6903 111.96 91.4103 106.74 93.2903Z" fill="#F9A723"/>
<path d="M106.5 92.6502C101.62 94.4002 96.23 91.9302 94.45 87.1102C92.68 82.3002 95.19 76.9702 100.07 75.2002C104.94 73.4502 110.34 75.9302 112.12 80.7502C113.89 85.5702 111.37 90.9102 106.5 92.6502Z" fill="#F9A524"/>
<path d="M106.27 92.0201C101.74 93.6501 96.7403 91.3501 95.1003 86.8801C93.4603 82.4201 95.7803 77.4701 100.31 75.8401C104.83 74.2201 109.83 76.5201 111.48 80.9801C113.12 85.4501 110.79 90.4001 106.27 92.0201Z" fill="#F9A324"/>
<path d="M106.03 91.3901C101.86 92.8901 97.2498 90.7701 95.7398 86.6501C94.2298 82.5401 96.3698 77.9801 100.54 76.4801C104.7 74.9801 109.31 77.1101 110.84 81.2201C112.35 85.3301 110.2 89.8901 106.03 91.3901Z" fill="#F8A025"/>
<path d="M105.8 90.7503C101.98 92.1203 97.7703 90.1903 96.3803 86.4203C95.0003 82.6603 96.9602 78.4903 100.77 77.1103C104.58 75.7403 108.8 77.6803 110.19 81.4503C111.58 85.2103 109.61 89.3803 105.8 90.7503Z" fill="#F89E26"/>
<path d="M105.571 90.1203C102.111 91.3603 98.2906 89.6103 97.0306 86.1903C95.7806 82.7803 97.5506 79.0003 101.011 77.7503C104.471 76.5103 108.291 78.2703 109.561 81.6803C110.811 85.0903 109.021 88.8803 105.571 90.1203Z" fill="#F89C26"/>
<path d="M105.33 89.4801C102.22 90.6001 98.7904 89.0201 97.6604 85.9501C96.5304 82.8901 98.1304 79.5001 101.23 78.3701C104.33 77.2601 107.76 78.8401 108.9 81.9001C110.04 84.9701 108.43 88.3701 105.33 89.4801Z" fill="#F89A27"/>
<path d="M105.101 88.8499C102.351 89.8399 99.3105 88.44 98.3105 85.73C97.3105 83.02 98.7305 80.0099 101.481 79.0199C104.231 78.0299 107.271 79.43 108.271 82.15C109.261 84.85 107.841 87.8599 105.101 88.8499Z" fill="#F79728"/>
<path d="M104.87 88.2101C102.47 89.0701 99.8299 87.8601 98.9599 85.4901C98.0899 83.1301 99.3199 80.5101 101.72 79.6501C104.11 78.7901 106.76 80.0101 107.64 82.3701C108.49 84.7301 107.26 87.3601 104.87 88.2101Z" fill="#F79528"/>
<path d="M104.631 87.5802C102.591 88.3102 100.331 87.2802 99.5906 85.2602C98.8506 83.2502 99.9006 81.0202 101.941 80.2802C103.981 79.5502 106.231 80.5902 106.981 82.6002C107.721 84.6102 106.671 86.8502 104.631 87.5802Z" fill="#F79329"/>
<path d="M31.5402 100.9C22.0402 104.31 11.5602 99.5001 8.10019 90.1201C4.66019 80.7501 9.53019 70.3801 19.0302 66.9501C28.5002 63.5401 39.0102 68.3701 42.4802 77.7401C45.9202 87.1301 41.0202 97.5001 31.5402 100.9Z" fill="#FCC21B"/>
<path d="M31.3104 100.27C22.1604 103.56 12.0704 98.9202 8.7504 89.9002C5.4404 80.8802 10.1304 70.9002 19.2704 67.6002C28.3904 64.3202 38.5004 68.9702 41.8404 77.9902C45.1504 87.0102 40.4304 96.9902 31.3104 100.27Z" fill="#FCC01C"/>
<path d="M31.0699 99.6301C22.2799 102.79 12.5799 98.3401 9.37988 89.6601C6.19988 81.0001 10.7199 71.4001 19.4999 68.2301C28.2699 65.0801 37.9799 69.5401 41.1899 78.2101C44.3699 86.8901 39.8399 96.4901 31.0699 99.6301Z" fill="#FCBE1C"/>
<path d="M30.8405 99.0003C22.4005 102.03 13.1005 97.7603 10.0305 89.4303C6.97055 81.1103 11.3005 71.9003 19.7305 68.8603C28.1405 65.8303 37.4705 70.1203 40.5505 78.4403C43.6005 86.7703 39.2605 95.9803 30.8405 99.0003Z" fill="#FBBB1D"/>
<path d="M30.6107 98.3604C22.5307 101.26 13.6107 97.1704 10.6807 89.1904C7.75066 81.2204 11.9007 72.4004 19.9807 69.4904C28.0407 66.5904 36.9707 70.7004 39.9207 78.6704C42.8307 86.6504 38.6707 95.4704 30.6107 98.3604Z" fill="#FBB91E"/>
<path d="M30.3704 97.73C22.6404 100.51 14.1204 96.59 11.3104 88.97C8.51037 81.35 12.4804 72.92 20.2004 70.13C27.9004 67.36 36.4404 71.28 39.2604 78.9C42.0604 86.53 38.0804 94.96 30.3704 97.73Z" fill="#FBB71E"/>
<path d="M30.1397 97.1003C22.7697 99.7503 14.6397 96.0103 11.9597 88.7403C9.28974 81.4703 13.0697 73.4303 20.4397 70.7703C27.7897 68.1303 35.9397 71.8703 38.6297 79.1403C41.2897 86.4103 37.4897 94.4603 30.1397 97.1003Z" fill="#FBB51F"/>
<path d="M29.9002 96.46C22.8802 98.98 15.1402 95.43 12.6002 88.5C10.0602 81.58 13.6602 73.93 20.6702 71.4C27.6702 68.88 35.4202 72.45 37.9802 79.37C40.5202 86.29 36.9002 93.95 29.9002 96.46Z" fill="#FAB220"/>
<path d="M29.6706 95.83C23.0106 98.22 15.6606 94.85 13.2406 88.28C10.8306 81.71 14.2506 74.44 20.9006 72.04C27.5406 69.65 34.9006 73.04 37.3306 79.6C39.7506 86.17 36.3106 93.44 29.6706 95.83Z" fill="#FAB020"/>
<path d="M29.44 95.1902C23.13 97.4502 16.18 94.2602 13.89 88.0402C11.61 81.8202 14.84 74.9402 21.14 72.6702C27.43 70.4102 34.4 73.6102 36.7 79.8302C38.98 86.0502 35.73 92.9302 29.44 95.1902Z" fill="#FAAE21"/>
<path d="M29.1997 94.56C23.2497 96.7 16.6897 93.68 14.5197 87.81C12.3697 81.94 15.4197 75.4501 21.3597 73.3101C27.2897 71.1801 33.8697 74.2 36.0397 80.07C38.1997 85.93 35.1397 92.43 29.1997 94.56Z" fill="#FAAC22"/>
<path d="M28.9699 93.9201C23.3799 95.9301 17.1999 93.1001 15.1699 87.5701C13.1399 82.0601 16.0199 75.9501 21.6099 73.9301C27.1899 71.9201 33.3699 74.7701 35.4099 80.2801C37.4299 85.8101 34.5499 91.9201 28.9699 93.9201Z" fill="#F9A922"/>
<path d="M28.7403 93.2903C23.5003 95.1703 17.7203 92.5203 15.8203 87.3503C13.9203 82.1903 16.6103 76.4703 21.8503 74.5803C27.0803 72.7003 32.8703 75.3603 34.7803 80.5303C36.6603 85.6903 33.9603 91.4103 28.7403 93.2903Z" fill="#F9A723"/>
<path d="M28.5 92.6502C23.62 94.4002 18.23 91.9302 16.45 87.1102C14.68 82.3002 17.19 76.9702 22.07 75.2002C26.94 73.4502 32.34 75.9302 34.12 80.7502C35.89 85.5702 33.37 90.9102 28.5 92.6502Z" fill="#F9A524"/>
<path d="M28.2703 92.0201C23.7403 93.6501 18.7403 91.3501 17.1003 86.8801C15.4603 82.4201 17.7803 77.4701 22.3103 75.8401C26.8303 74.2201 31.8303 76.5201 33.4803 80.9801C35.1203 85.4501 32.7903 90.4001 28.2703 92.0201Z" fill="#F9A324"/>
<path d="M28.0298 91.3901C23.8598 92.8901 19.2498 90.7701 17.7398 86.6501C16.2298 82.5401 18.3698 77.9801 22.5398 76.4801C26.6998 74.9801 31.3098 77.1101 32.8398 81.2201C34.3498 85.3301 32.1998 89.8901 28.0298 91.3901Z" fill="#F8A025"/>
<path d="M27.8003 90.7503C23.9803 92.1203 19.7702 90.1903 18.3803 86.4203C17.0002 82.6603 18.9603 78.4903 22.7703 77.1103C26.5803 75.7403 30.8002 77.6803 32.1902 81.4503C33.5802 85.2103 31.6103 89.3803 27.8003 90.7503Z" fill="#F89E26"/>
<path d="M27.5706 90.1203C24.1106 91.3603 20.2906 89.6103 19.0306 86.1903C17.7806 82.7803 19.5506 79.0003 23.0106 77.7503C26.4706 76.5103 30.2906 78.2703 31.5606 81.6803C32.8106 85.0903 31.0206 88.8803 27.5706 90.1203Z" fill="#F89C26"/>
<path d="M27.3304 89.4801C24.2204 90.6001 20.7904 89.0201 19.6604 85.9501C18.5304 82.8901 20.1304 79.5001 23.2304 78.3701C26.3304 77.2601 29.7604 78.8401 30.9004 81.9001C32.0404 84.9701 30.4304 88.3701 27.3304 89.4801Z" fill="#F89A27"/>
<path d="M27.1005 88.8499C24.3505 89.8399 21.3105 88.44 20.3105 85.73C19.3105 83.02 20.7305 80.0099 23.4805 79.0199C26.2305 78.0299 29.2705 79.43 30.2705 82.15C31.2605 84.85 29.8405 87.8599 27.1005 88.8499Z" fill="#F79728"/>
<path d="M26.8699 88.2101C24.4699 89.0701 21.8299 87.8601 20.9599 85.4901C20.0899 83.1301 21.3199 80.5101 23.7199 79.6501C26.1099 78.7901 28.7599 80.0101 29.6399 82.3701C30.4899 84.7301 29.2599 87.3601 26.8699 88.2101Z" fill="#F79528"/>
<path d="M26.6306 87.5802C24.5906 88.3102 22.3306 87.2802 21.5906 85.2602C20.8506 83.2502 21.9006 81.0202 23.9406 80.2802C25.9806 79.5502 28.2306 80.5902 28.9806 82.6002C29.7206 84.6102 28.6706 86.8502 26.6306 87.5802Z" fill="#F79329"/>
<path d="M30.9596 64.4498C30.1796 65.7298 28.5196 66.1498 27.2296 65.3798C25.9396 64.6098 25.5196 62.9598 26.2696 61.6698C26.4496 61.3598 30.8696 54.0498 40.6396 54.0498C50.4196 54.0498 54.8396 61.3598 55.0296 61.6698C55.7896 62.9598 55.3496 64.6398 54.0596 65.3998C53.6196 65.6598 53.1496 65.7798 52.6696 65.7798C51.7496 65.7798 50.8396 65.3098 50.3296 64.4598C50.1996 64.2398 47.2096 59.4998 40.6396 59.4998C34.0696 59.4898 31.0996 64.2398 30.9596 64.4498Z" fill="#2F2F2F"/>
<path d="M101 65.39C100.57 65.65 100.09 65.77 99.6296 65.77C98.6896 65.77 97.7796 65.28 97.2696 64.43C97.1596 64.23 94.1896 59.49 87.6096 59.49C80.9196 59.49 77.9496 64.38 77.9196 64.43C77.1496 65.72 75.4896 66.16 74.1896 65.39C72.8996 64.63 72.4596 62.95 73.2296 61.66C73.4096 61.35 77.8296 54.04 87.6096 54.04C97.3796 54.04 101.79 61.35 101.97 61.66C102.73 62.96 102.29 64.63 101 65.39Z" fill="#2F2F2F"/>
<path d="M96.4596 78.2599C93.3696 76.1699 89.4796 77.5499 86.0396 78.2599C76.4596 80.2399 68.0396 80.3199 63.9996 80.3199C59.9596 80.3199 51.5396 80.2399 41.9596 78.2599C38.5196 77.5499 34.6296 76.1699 31.5396 78.2599C27.6196 80.9099 30.5096 90.4099 36.6796 96.8299C40.4096 100.71 49.2896 108.24 63.9996 108.24C78.7096 108.24 87.5896 100.71 91.3196 96.8299C97.4896 90.4099 100.37 80.9099 96.4596 78.2599Z" fill="#ED6C30"/>
</g>
<path d="M627.85 97.09C627.85 106.382 625.421 112.977 621.632 117.785C617.807 122.638 612.306 126.036 605.555 128.379C591.858 133.134 574.235 133.179 558.461 133.179C542.694 133.179 524.826 133.136 510.886 128.373C504.009 126.023 498.391 122.616 494.486 117.754C490.622 112.946 488.147 106.361 488.147 97.09C488.147 79.7553 491.881 58.6573 502.524 42.035C513.009 25.6592 530.334 13.3638 558.461 13.3638C585.124 13.3638 602.256 25.6811 612.904 42.1833C623.685 58.8938 627.85 80.0153 627.85 97.09Z" fill="#FBC546" stroke="black" stroke-width="8.29493"/>
<path fill-rule="evenodd" clip-rule="evenodd" d="M534.854 110.105C526.448 104.782 519.982 96.7857 518.102 87.5322H597.726C595.845 96.7857 589.379 104.782 580.973 110.105C576.855 105.247 538.972 105.247 534.854 110.105Z" fill="#722245"/>
<path fill-rule="evenodd" clip-rule="evenodd" d="M534.85 110.106C538.968 105.247 545.091 102.279 551.734 102.279C555.753 102.279 560.066 102.279 564.085 102.279C570.728 102.279 576.851 105.247 580.969 110.106C574.098 114.459 565.928 117.025 557.91 117.025C549.891 117.025 541.721 114.459 534.85 110.106Z" fill="#CA3B8F"/>
<path fill-rule="evenodd" clip-rule="evenodd" d="M520.281 75.4138C520.97 76.1032 521.907 76.4903 522.884 76.4903C523.861 76.4903 524.797 76.1032 525.487 75.4138C525.501 75.3991 525.512 75.3917 525.512 75.3917C527.754 73.1502 530.792 71.8894 533.962 71.8894C537.133 71.8894 540.17 73.1502 542.412 75.3917C542.412 75.3917 542.423 75.3991 542.438 75.4138C543.127 76.1032 544.064 76.4903 545.041 76.4903C546.017 76.4903 546.954 76.1032 547.643 75.4138C547.647 75.4138 547.647 75.4101 547.647 75.4101C549.088 73.9723 549.088 71.635 547.647 70.1972C547.636 70.1825 547.629 70.1751 547.629 70.1751C544.005 66.5511 539.087 64.5161 533.962 64.5161C528.838 64.5161 523.92 66.5511 520.296 70.1751C520.296 70.1751 520.288 70.1825 520.277 70.1972C518.836 71.635 518.836 73.9723 520.277 75.4101C520.277 75.4101 520.277 75.4138 520.281 75.4138Z" fill="black"/>
<path fill-rule="evenodd" clip-rule="evenodd" d="M595.57 75.4138C594.88 76.1032 593.944 76.4903 592.967 76.4903C591.99 76.4903 591.053 76.1032 590.364 75.4138C590.349 75.3991 590.338 75.3917 590.338 75.3917C588.097 73.1502 585.059 71.8894 581.888 71.8894C578.718 71.8894 575.68 73.1502 573.439 75.3917C573.439 75.3917 573.428 75.3991 573.413 75.4138C572.723 76.1032 571.787 76.4903 570.81 76.4903C569.833 76.4903 568.897 76.1032 568.207 75.4138C568.204 75.4138 568.204 75.4101 568.204 75.4101C566.762 73.9723 566.762 71.635 568.204 70.1972C568.215 70.1825 568.222 70.1751 568.222 70.1751C571.846 66.5511 576.764 64.5161 581.888 64.5161C587.013 64.5161 591.931 66.5511 595.555 70.1751C595.555 70.1751 595.562 70.1825 595.573 70.1972C597.015 71.635 597.015 73.9723 595.573 75.4101C595.573 75.4101 595.573 75.4138 595.57 75.4138Z" fill="black"/>
<path fill-rule="evenodd" clip-rule="evenodd" d="M299 10C315.972 10 332.252 16.744 344.256 28.744C356.256 40.748 363 57.028 363 74V78C363 111.136 336.136 138 303 138H295C261.864 138 235 111.136 235 78V74C235 38.652 263.652 10 299 10Z" fill="black"/>
<path fill-rule="evenodd" clip-rule="evenodd" d="M355 74C355 59.148 349.1 44.904 338.596 34.404C328.096 23.9 313.852 18 299 18C268.072 18 243 43.072 243 74V78C243 106.72 266.28 130 295 130H303C331.72 130 355 106.72 355 78V74Z" fill="#FBC546"/>
<path fill-rule="evenodd" clip-rule="evenodd" d="M258.177 64.824C258.925 65.572 259.941 65.992 261.001 65.992C262.061 65.992 263.077 65.572 263.825 64.824C263.841 64.808 263.853 64.8 263.853 64.8C266.285 62.368 269.581 61 273.021 61C276.461 61 279.757 62.368 282.189 64.8C282.189 64.8 282.201 64.808 282.217 64.824C282.965 65.572 283.981 65.992 285.041 65.992C286.101 65.992 287.117 65.572 287.865 64.824C287.869 64.824 287.869 64.82 287.869 64.82C289.433 63.26 289.433 60.724 287.869 59.164C287.857 59.148 287.849 59.14 287.849 59.14C283.917 55.208 278.581 53 273.021 53C267.461 53 262.125 55.208 258.193 59.14C258.193 59.14 258.185 59.148 258.173 59.164C256.609 60.724 256.609 63.26 258.173 64.82C258.173 64.82 258.173 64.824 258.177 64.824Z" fill="black"/>
<path fill-rule="evenodd" clip-rule="evenodd" d="M339.865 64.824C339.117 65.572 338.101 65.992 337.041 65.992C335.981 65.992 334.965 65.572 334.217 64.824C334.201 64.808 334.189 64.8 334.189 64.8C331.757 62.368 328.461 61 325.021 61C321.581 61 318.285 62.368 315.853 64.8C315.853 64.8 315.841 64.808 315.825 64.824C315.077 65.572 314.061 65.992 313.001 65.992C311.941 65.992 310.925 65.572 310.177 64.824C310.173 64.824 310.173 64.82 310.173 64.82C308.609 63.26 308.609 60.724 310.173 59.164C310.185 59.148 310.193 59.14 310.193 59.14C314.125 55.208 319.461 53 325.021 53C330.581 53 335.917 55.208 339.849 59.14C339.849 59.14 339.857 59.148 339.869 59.164C341.433 60.724 341.433 63.26 339.869 64.82C339.869 64.82 339.869 64.824 339.865 64.824Z" fill="black"/>
<path fill-rule="evenodd" clip-rule="evenodd" d="M273.926 102.492C264.806 96.716 257.79 88.04 255.75 78H342.142C340.102 88.04 333.086 96.716 323.966 102.492C319.498 97.22 278.394 97.22 273.926 102.492Z" fill="#722245"/>
<path fill-rule="evenodd" clip-rule="evenodd" d="M274 102.492C278.468 97.22 285.112 94 292.32 94C296.68 94 301.36 94 305.72 94C312.928 94 319.572 97.22 324.04 102.492C316.584 107.216 307.72 110 299.02 110C290.32 110 281.456 107.216 274 102.492Z" fill="#CA3B8F"/>
<path fill-rule="evenodd" clip-rule="evenodd" d="M185.75 69.5H201.5V80H185.75V95H178.25V80H162.5V69.5H178.25V56H185.75V69.5Z" stroke="black" stroke-width="4" stroke-miterlimit="1.41421" stroke-linejoin="round"/>
<path d="M201.5 80H162.5V77L165.5 74H198.5L201.5 76.928V80Z" fill="#747474"/>
<path d="M201.5 77H162.5V69.5H201.5V77Z" fill="white"/>
<path d="M181.25 89L178.25 91.994V95H185.75V92L182.75 89H181.25Z" fill="#747474"/>
<path d="M178.25 56H185.75V92H178.25V56Z" fill="white"/>
<path fill-rule="evenodd" clip-rule="evenodd" d="M442 70H406V59.5H442V70Z" stroke="black" stroke-width="4" stroke-miterlimit="1.41421" stroke-linejoin="round"/>
<path d="M442 70H406V66.928L409 64H439L442 66.928V70Z" fill="#747474"/>
<path d="M442 67H406V59.5H442V67Z" fill="white"/>
<path fill-rule="evenodd" clip-rule="evenodd" d="M442 91H406V80.5H442V91Z" stroke="black" stroke-width="4" stroke-miterlimit="1.41421" stroke-linejoin="round"/>
<path d="M442 91H406V87.928L409 85H439L442 87.928V91Z" fill="#747474"/>
<path d="M442 88H406V80.5H442V88Z" fill="white"/>
<defs>
<clipPath id="clip0">
<rect width="128" height="128" fill="white" transform="translate(0 10)"/>
</clipPath>
</defs>
</svg>
