<?xml version="1.0" encoding="utf-8"?>
<!-- Generator: Adobe Illustrator 27.1.1, SVG Export Plug-In . SVG Version: 6.00 Build 0)  -->
<svg version="1.1" id="wave" xmlns="http://www.w3.org/2000/svg" xmlns:xlink="http://www.w3.org/1999/xlink" x="0px" y="0px"
	 viewBox="0 0 1440 100" style="enable-background:new 0 0 1440 100;" xml:space="preserve">
<style type="text/css">
	.st0{fill:#7BB7B0;}
</style>
<path class="st0" d="M0,30l34.3,10C68.6,50,137,70,206,75c68.3,5,137-5,205-20c69-15,138-35,206-43.3C685.7,3,754,7,823,18.3
	c68.4,11.7,137,31.7,206,40c68.1,8.7,137,4.7,205,0C1302.9,53,1371,47,1440,40c68.6-7,137-13,206-10c68.3,3,137,17,205,23.3
	c69,6.7,138,6.7,206,6.7c68.7,0,137,0,206-8.3c68.4-8.7,137-24.7,206-28.4c68.1-3.3,137,6.7,205,13.4c68.9,6.3,137,10.3,206,6.6
	c68.6-3.3,137-13.3,206-8.3c68.3,5,137,25,205,26.7c69,1.3,138-14.7,206-28.4c68.7-13.3,137-23.3,206-25c68.4-1.3,137,4.7,206,10
	c68.1,4.7,137,8.7,205,20C4182.9,50,4251,70,4320,65c68.6-5,137-35,206-35c68.3,0,137,30,205,43.3c69,13.7,138,9.7,172,8.4l34.1-1.7
	v20h-34.2c-34.3,0-102.9,0-171.9,0c-68.1,0-137,0-205,0c-68.9,0-137,0-206,0c-68.6,0-137,0-206,0c-68.3,0-137,0-205,0
	c-69,0-138,0-206,0c-68.7,0-137,0-206,0c-68.4,0-137,0-206,0c-68.1,0-137,0-205,0c-68.9,0-137,0-206,0c-68.6,0-137,0-206,0
	c-68.3,0-137,0-205,0c-69,0-138,0-206,0c-68.7,0-137,0-206,0c-68.4,0-137,0-206,0c-68.1,0-137,0-205,0c-68.9,0-137,0-206,0
	c-68.6,0-137,0-206,0c-68.3,0-137,0-205,0c-69,0-138,0-206,0c-68.7,0-137,0-206,0c-68.4,0-137,0-206,0c-68.1,0-137,0-205,0
	c-68.9,0-137,0-172,0H0V30z"/>
</svg>
